<mxfile host="app.diagrams.net" modified="2021-01-06T17:03:26.026Z" agent="5.0 (Windows NT 10.0; Win64; x64) AppleWebKit/537.36 (KHTML, like Gecko) Chrome/87.0.4280.88 Safari/537.36" etag="MIKwistxzFPuPMf_t8LA" version="14.1.8" type="github">
  <diagram name="Page-1" id="97916047-d0de-89f5-080d-49f4d83e522f">
    <mxGraphModel dx="2943" dy="1660" grid="1" gridSize="10" guides="1" tooltips="1" connect="1" arrows="1" fold="1" page="1" pageScale="1.5" pageWidth="1169" pageHeight="827" background="#ffffff" math="0" shadow="0">
      <root>
        <mxCell id="0" />
        <mxCell id="1" parent="0" />
        <mxCell id="L8oH2PC6cao74O7fm0F5-59" value="" style="edgeStyle=elbowEdgeStyle;elbow=vertical;strokeWidth=4;endArrow=block;endFill=1;fontStyle=1;strokeColor=#23445D;entryX=0.5;entryY=0;entryDx=0;entryDy=0;" edge="1" parent="1" source="L8oH2PC6cao74O7fm0F5-58" target="L8oH2PC6cao74O7fm0F5-60">
          <mxGeometry x="-172" y="140" width="100" height="100" as="geometry">
            <mxPoint x="578" y="240" as="sourcePoint" />
            <mxPoint x="578" y="320" as="targetPoint" />
          </mxGeometry>
        </mxCell>
        <mxCell id="L8oH2PC6cao74O7fm0F5-60" value="NewsViewModel" style="rounded=1;fillColor=#10739E;strokeColor=none;shadow=1;gradientColor=none;fontStyle=1;fontColor=#FFFFFF;fontSize=14;" vertex="1" parent="1">
          <mxGeometry x="468" y="390" width="220" height="60" as="geometry" />
        </mxCell>
        <mxCell id="L8oH2PC6cao74O7fm0F5-61" value="NewsFragment" style="rounded=1;fillColor=#10739E;strokeColor=none;shadow=1;gradientColor=none;fontStyle=1;fontColor=#FFFFFF;fontSize=14;" vertex="1" parent="1">
          <mxGeometry x="300" y="650" width="200" height="60" as="geometry" />
        </mxCell>
        <mxCell id="L8oH2PC6cao74O7fm0F5-62" value="ArticleFragment" style="rounded=1;fillColor=#10739E;strokeColor=none;shadow=1;gradientColor=none;fontStyle=1;fontColor=#FFFFFF;fontSize=14;" vertex="1" parent="1">
          <mxGeometry x="698" y="650" width="200" height="60" as="geometry" />
        </mxCell>
        <mxCell id="L8oH2PC6cao74O7fm0F5-63" value="" style="edgeStyle=elbowEdgeStyle;elbow=vertical;strokeWidth=4;endArrow=block;endFill=1;fontStyle=1;strokeColor=#23445D;entryX=0.5;entryY=0;entryDx=0;entryDy=0;" edge="1" parent="1" target="L8oH2PC6cao74O7fm0F5-62">
          <mxGeometry x="-172" y="140" width="100" height="100" as="geometry">
            <mxPoint x="578" y="450" as="sourcePoint" />
            <mxPoint x="998" y="590" as="targetPoint" />
            <Array as="points">
              <mxPoint x="700" y="510" />
            </Array>
          </mxGeometry>
        </mxCell>
        <mxCell id="L8oH2PC6cao74O7fm0F5-64" value="" style="edgeStyle=elbowEdgeStyle;elbow=vertical;strokeWidth=4;endArrow=block;endFill=1;fontStyle=1;strokeColor=#23445D;entryX=0.5;entryY=0;entryDx=0;entryDy=0;" edge="1" parent="1" target="L8oH2PC6cao74O7fm0F5-61">
          <mxGeometry x="-162" y="150" width="100" height="100" as="geometry">
            <mxPoint x="578" y="450" as="sourcePoint" />
            <mxPoint x="798" y="490" as="targetPoint" />
            <Array as="points">
              <mxPoint x="440" y="510" />
              <mxPoint x="568" y="440" />
              <mxPoint x="528" y="450" />
              <mxPoint x="698" y="450" />
            </Array>
          </mxGeometry>
        </mxCell>
        <mxCell id="L8oH2PC6cao74O7fm0F5-96" style="edgeStyle=orthogonalEdgeStyle;rounded=0;orthogonalLoop=1;jettySize=auto;html=1;entryX=0.5;entryY=1;entryDx=0;entryDy=0;strokeWidth=3;exitX=0.5;exitY=0;exitDx=0;exitDy=0;" edge="1" parent="1" source="L8oH2PC6cao74O7fm0F5-68" target="L8oH2PC6cao74O7fm0F5-84">
          <mxGeometry relative="1" as="geometry" />
        </mxCell>
        <mxCell id="L8oH2PC6cao74O7fm0F5-68" value="GroupAddDialog" style="rounded=1;fillColor=#10739E;strokeColor=none;shadow=1;gradientColor=none;fontStyle=1;fontColor=#FFFFFF;fontSize=14;" vertex="1" parent="1">
          <mxGeometry x="2243.5" y="530" width="200" height="60" as="geometry" />
        </mxCell>
        <mxCell id="L8oH2PC6cao74O7fm0F5-109" style="edgeStyle=orthogonalEdgeStyle;rounded=0;orthogonalLoop=1;jettySize=auto;html=1;strokeWidth=3;exitX=0.5;exitY=0;exitDx=0;exitDy=0;" edge="1" parent="1" source="L8oH2PC6cao74O7fm0F5-103" target="L8oH2PC6cao74O7fm0F5-105">
          <mxGeometry relative="1" as="geometry">
            <Array as="points">
              <mxPoint x="2070" y="580" />
              <mxPoint x="2070" y="580" />
            </Array>
          </mxGeometry>
        </mxCell>
        <mxCell id="L8oH2PC6cao74O7fm0F5-111" style="edgeStyle=orthogonalEdgeStyle;rounded=0;orthogonalLoop=1;jettySize=auto;html=1;strokeWidth=3;entryX=0.5;entryY=1;entryDx=0;entryDy=0;" edge="1" parent="1" source="L8oH2PC6cao74O7fm0F5-69" target="L8oH2PC6cao74O7fm0F5-105">
          <mxGeometry relative="1" as="geometry" />
        </mxCell>
        <mxCell id="L8oH2PC6cao74O7fm0F5-112" style="edgeStyle=orthogonalEdgeStyle;rounded=0;orthogonalLoop=1;jettySize=auto;html=1;entryX=0.5;entryY=0;entryDx=0;entryDy=0;strokeWidth=3;" edge="1" parent="1" source="L8oH2PC6cao74O7fm0F5-69" target="L8oH2PC6cao74O7fm0F5-103">
          <mxGeometry relative="1" as="geometry" />
        </mxCell>
        <mxCell id="L8oH2PC6cao74O7fm0F5-69" value="GroupEditDialog" style="rounded=1;fillColor=#10739E;strokeColor=none;shadow=1;gradientColor=none;fontStyle=1;fontColor=#FFFFFF;fontSize=14;" vertex="1" parent="1">
          <mxGeometry x="1730" y="540" width="200" height="60" as="geometry" />
        </mxCell>
        <mxCell id="L8oH2PC6cao74O7fm0F5-82" style="edgeStyle=orthogonalEdgeStyle;rounded=0;orthogonalLoop=1;jettySize=auto;html=1;strokeWidth=3;" edge="1" parent="1" source="L8oH2PC6cao74O7fm0F5-71" target="L8oH2PC6cao74O7fm0F5-68">
          <mxGeometry relative="1" as="geometry">
            <mxPoint x="2150" y="590" as="targetPoint" />
          </mxGeometry>
        </mxCell>
        <mxCell id="L8oH2PC6cao74O7fm0F5-85" style="edgeStyle=orthogonalEdgeStyle;rounded=0;orthogonalLoop=1;jettySize=auto;html=1;strokeWidth=3;" edge="1" parent="1" source="L8oH2PC6cao74O7fm0F5-71" target="L8oH2PC6cao74O7fm0F5-84">
          <mxGeometry relative="1" as="geometry" />
        </mxCell>
        <mxCell id="L8oH2PC6cao74O7fm0F5-71" value="CollectionFragment" style="rounded=1;fillColor=#10739E;strokeColor=none;shadow=1;gradientColor=none;fontStyle=1;fontColor=#FFFFFF;fontSize=14;" vertex="1" parent="1">
          <mxGeometry x="1335" y="790" width="200" height="60" as="geometry" />
        </mxCell>
        <mxCell id="L8oH2PC6cao74O7fm0F5-90" style="edgeStyle=orthogonalEdgeStyle;rounded=0;orthogonalLoop=1;jettySize=auto;html=1;exitX=1;exitY=0.5;exitDx=0;exitDy=0;strokeWidth=3;" edge="1" parent="1" source="L8oH2PC6cao74O7fm0F5-75" target="L8oH2PC6cao74O7fm0F5-69">
          <mxGeometry relative="1" as="geometry" />
        </mxCell>
        <mxCell id="L8oH2PC6cao74O7fm0F5-100" style="edgeStyle=orthogonalEdgeStyle;rounded=0;orthogonalLoop=1;jettySize=auto;html=1;strokeWidth=3;exitX=0.5;exitY=1;exitDx=0;exitDy=0;" edge="1" parent="1" source="L8oH2PC6cao74O7fm0F5-88" target="L8oH2PC6cao74O7fm0F5-75">
          <mxGeometry relative="1" as="geometry" />
        </mxCell>
        <mxCell id="L8oH2PC6cao74O7fm0F5-101" style="edgeStyle=orthogonalEdgeStyle;rounded=0;orthogonalLoop=1;jettySize=auto;html=1;strokeWidth=3;entryX=0;entryY=0.5;entryDx=0;entryDy=0;" edge="1" parent="1" source="L8oH2PC6cao74O7fm0F5-75" target="L8oH2PC6cao74O7fm0F5-69">
          <mxGeometry relative="1" as="geometry" />
        </mxCell>
        <mxCell id="L8oH2PC6cao74O7fm0F5-75" value="RssEditFragment" style="rounded=1;fillColor=#10739E;strokeColor=none;shadow=1;gradientColor=none;fontStyle=1;fontColor=#FFFFFF;fontSize=14;" vertex="1" parent="1">
          <mxGeometry x="1575" y="650" width="200" height="60" as="geometry" />
        </mxCell>
        <mxCell id="L8oH2PC6cao74O7fm0F5-97" style="edgeStyle=orthogonalEdgeStyle;rounded=0;orthogonalLoop=1;jettySize=auto;html=1;strokeWidth=3;exitX=0.5;exitY=1;exitDx=0;exitDy=0;" edge="1" parent="1" source="L8oH2PC6cao74O7fm0F5-87" target="L8oH2PC6cao74O7fm0F5-76">
          <mxGeometry relative="1" as="geometry" />
        </mxCell>
        <mxCell id="L8oH2PC6cao74O7fm0F5-76" value="RssSearchFragment" style="rounded=1;fillColor=#10739E;strokeColor=none;shadow=1;gradientColor=none;fontStyle=1;fontColor=#FFFFFF;fontSize=14;" vertex="1" parent="1">
          <mxGeometry x="1335" y="650" width="200" height="60" as="geometry" />
        </mxCell>
        <mxCell id="L8oH2PC6cao74O7fm0F5-98" style="edgeStyle=orthogonalEdgeStyle;rounded=0;orthogonalLoop=1;jettySize=auto;html=1;strokeWidth=3;exitX=0.5;exitY=1;exitDx=0;exitDy=0;" edge="1" parent="1" source="L8oH2PC6cao74O7fm0F5-86" target="L8oH2PC6cao74O7fm0F5-77">
          <mxGeometry relative="1" as="geometry" />
        </mxCell>
        <mxCell id="L8oH2PC6cao74O7fm0F5-77" value="RssAddFragment" style="rounded=1;fillColor=#10739E;strokeColor=none;shadow=1;gradientColor=none;fontStyle=1;fontColor=#FFFFFF;fontSize=14;" vertex="1" parent="1">
          <mxGeometry x="1095" y="650" width="200" height="60" as="geometry" />
        </mxCell>
        <mxCell id="L8oH2PC6cao74O7fm0F5-72" value="" style="shape=curlyBracket;whiteSpace=wrap;html=1;rounded=1;fillColor=#10739E;strokeWidth=3;strokeColor=#23445D;direction=north;size=0.5;" vertex="1" parent="1">
          <mxGeometry x="1080" y="720" width="710" height="70" as="geometry" />
        </mxCell>
        <mxCell id="L8oH2PC6cao74O7fm0F5-84" value="CollectionViewModel" style="rounded=1;fillColor=#10739E;strokeColor=none;shadow=1;gradientColor=none;fontStyle=1;fontColor=#FFFFFF;fontSize=14;" vertex="1" parent="1">
          <mxGeometry x="2403.5" y="380" width="200" height="60" as="geometry" />
        </mxCell>
        <mxCell id="L8oH2PC6cao74O7fm0F5-86" value="RssAddViewModel" style="rounded=1;fillColor=#10739E;strokeColor=none;shadow=1;gradientColor=none;fontStyle=1;fontColor=#FFFFFF;fontSize=14;" vertex="1" parent="1">
          <mxGeometry x="1095" y="390" width="200" height="60" as="geometry" />
        </mxCell>
        <mxCell id="L8oH2PC6cao74O7fm0F5-87" value="RssSearchViewModel" style="rounded=1;fillColor=#10739E;strokeColor=none;shadow=1;gradientColor=none;fontStyle=1;fontColor=#FFFFFF;fontSize=14;" vertex="1" parent="1">
          <mxGeometry x="1335" y="390" width="200" height="60" as="geometry" />
        </mxCell>
        <mxCell id="L8oH2PC6cao74O7fm0F5-88" value="RssEditViewModel" style="rounded=1;fillColor=#10739E;strokeColor=none;shadow=1;gradientColor=none;fontStyle=1;fontColor=#FFFFFF;fontSize=14;" vertex="1" parent="1">
          <mxGeometry x="1575" y="390" width="200" height="60" as="geometry" />
        </mxCell>
        <mxCell id="L8oH2PC6cao74O7fm0F5-114" style="edgeStyle=orthogonalEdgeStyle;rounded=0;orthogonalLoop=1;jettySize=auto;html=1;strokeWidth=3;exitX=1;exitY=0.5;exitDx=0;exitDy=0;" edge="1" parent="1" source="L8oH2PC6cao74O7fm0F5-88" target="L8oH2PC6cao74O7fm0F5-103">
          <mxGeometry relative="1" as="geometry">
            <mxPoint x="2210" y="420" as="sourcePoint" />
            <Array as="points">
              <mxPoint x="2200" y="420" />
              <mxPoint x="2200" y="650" />
            </Array>
          </mxGeometry>
        </mxCell>
        <mxCell id="L8oH2PC6cao74O7fm0F5-103" value="MoveUrlDialog" style="rounded=1;fillColor=#10739E;strokeColor=none;shadow=1;gradientColor=none;fontStyle=1;fontColor=#FFFFFF;fontSize=14;" vertex="1" parent="1">
          <mxGeometry x="1970" y="620" width="200" height="60" as="geometry" />
        </mxCell>
        <mxCell id="L8oH2PC6cao74O7fm0F5-113" style="edgeStyle=orthogonalEdgeStyle;rounded=0;orthogonalLoop=1;jettySize=auto;html=1;strokeWidth=3;exitX=1;exitY=0.5;exitDx=0;exitDy=0;" edge="1" parent="1" source="L8oH2PC6cao74O7fm0F5-88" target="L8oH2PC6cao74O7fm0F5-105">
          <mxGeometry relative="1" as="geometry">
            <Array as="points">
              <mxPoint x="2070" y="420" />
            </Array>
          </mxGeometry>
        </mxCell>
        <mxCell id="L8oH2PC6cao74O7fm0F5-105" value="RenameDialog" style="rounded=1;fillColor=#10739E;strokeColor=none;shadow=1;gradientColor=none;fontStyle=1;fontColor=#FFFFFF;fontSize=14;" vertex="1" parent="1">
          <mxGeometry x="1970" y="470" width="200" height="60" as="geometry" />
        </mxCell>
        <mxCell id="L8oH2PC6cao74O7fm0F5-116" style="edgeStyle=orthogonalEdgeStyle;rounded=0;orthogonalLoop=1;jettySize=auto;html=1;entryX=0.5;entryY=0;entryDx=0;entryDy=0;strokeWidth=3;" edge="1" parent="1" source="L8oH2PC6cao74O7fm0F5-115" target="L8oH2PC6cao74O7fm0F5-87">
          <mxGeometry relative="1" as="geometry" />
        </mxCell>
        <mxCell id="L8oH2PC6cao74O7fm0F5-117" style="edgeStyle=orthogonalEdgeStyle;rounded=0;orthogonalLoop=1;jettySize=auto;html=1;entryX=0.5;entryY=0;entryDx=0;entryDy=0;strokeWidth=3;" edge="1" parent="1" source="L8oH2PC6cao74O7fm0F5-115" target="L8oH2PC6cao74O7fm0F5-88">
          <mxGeometry relative="1" as="geometry" />
        </mxCell>
        <mxCell id="L8oH2PC6cao74O7fm0F5-118" style="edgeStyle=orthogonalEdgeStyle;rounded=0;orthogonalLoop=1;jettySize=auto;html=1;entryX=0.5;entryY=0;entryDx=0;entryDy=0;strokeWidth=3;" edge="1" parent="1" source="L8oH2PC6cao74O7fm0F5-115" target="L8oH2PC6cao74O7fm0F5-86">
          <mxGeometry relative="1" as="geometry" />
        </mxCell>
        <mxCell id="L8oH2PC6cao74O7fm0F5-115" value="CollectionRepository" style="rounded=1;fillColor=#10739E;strokeColor=none;shadow=1;gradientColor=none;fontStyle=1;fontColor=#FFFFFF;fontSize=14;" vertex="1" parent="1">
          <mxGeometry x="1335" y="210" width="200" height="60" as="geometry" />
        </mxCell>
        <mxCell id="L8oH2PC6cao74O7fm0F5-58" value="NewsRepository" style="rounded=1;fillColor=#10739E;strokeColor=none;shadow=1;gradientColor=none;fontStyle=1;fontColor=#FFFFFF;fontSize=14;" vertex="1" parent="1">
          <mxGeometry x="478" y="210" width="200" height="60" as="geometry" />
        </mxCell>
        <mxCell id="L8oH2PC6cao74O7fm0F5-121" style="edgeStyle=orthogonalEdgeStyle;rounded=0;orthogonalLoop=1;jettySize=auto;html=1;entryX=0.5;entryY=0;entryDx=0;entryDy=0;strokeWidth=3;" edge="1" parent="1" source="L8oH2PC6cao74O7fm0F5-120" target="L8oH2PC6cao74O7fm0F5-58">
          <mxGeometry relative="1" as="geometry" />
        </mxCell>
        <mxCell id="L8oH2PC6cao74O7fm0F5-120" value="FetchRss&#xa;libary:Okhttp+Retrofit" style="rounded=1;fillColor=#10739E;strokeColor=none;shadow=1;gradientColor=none;fontStyle=1;fontColor=#FFFFFF;fontSize=14;" vertex="1" parent="1">
          <mxGeometry x="250" y="80" width="200" height="60" as="geometry" />
        </mxCell>
        <mxCell id="L8oH2PC6cao74O7fm0F5-124" style="edgeStyle=orthogonalEdgeStyle;rounded=0;orthogonalLoop=1;jettySize=auto;html=1;entryX=0.5;entryY=0;entryDx=0;entryDy=0;strokeWidth=3;" edge="1" parent="1" source="L8oH2PC6cao74O7fm0F5-123" target="L8oH2PC6cao74O7fm0F5-115">
          <mxGeometry relative="1" as="geometry" />
        </mxCell>
        <mxCell id="L8oH2PC6cao74O7fm0F5-126" style="edgeStyle=orthogonalEdgeStyle;rounded=0;orthogonalLoop=1;jettySize=auto;html=1;entryX=0.5;entryY=0;entryDx=0;entryDy=0;strokeWidth=3;" edge="1" parent="1" source="L8oH2PC6cao74O7fm0F5-123" target="L8oH2PC6cao74O7fm0F5-58">
          <mxGeometry relative="1" as="geometry" />
        </mxCell>
        <mxCell id="L8oH2PC6cao74O7fm0F5-123" value="AppDataBase&#xa;libary:Room" style="rounded=1;fillColor=#10739E;strokeColor=none;shadow=1;gradientColor=none;fontStyle=1;fontColor=#FFFFFF;fontSize=14;" vertex="1" parent="1">
          <mxGeometry x="870" y="80" width="200" height="60" as="geometry" />
        </mxCell>
        <mxCell id="L8oH2PC6cao74O7fm0F5-129" value="XML" style="rounded=1;fillColor=#10739E;strokeColor=none;shadow=1;gradientColor=none;fontStyle=1;fontColor=#FFFFFF;fontSize=14;" vertex="1" parent="1">
          <mxGeometry x="1295" y="1070" width="280" height="100" as="geometry" />
        </mxCell>
        <mxCell id="L8oH2PC6cao74O7fm0F5-130" value="" style="shape=curlyBracket;whiteSpace=wrap;html=1;rounded=1;fillColor=#10739E;strokeWidth=3;strokeColor=#23445D;direction=north;size=0.5;fontSize=32;" vertex="1" parent="1">
          <mxGeometry x="325" y="850" width="2220" height="200" as="geometry" />
        </mxCell>
        <mxCell id="L8oH2PC6cao74O7fm0F5-136" value="DataBinding" style="text;html=1;align=center;verticalAlign=middle;resizable=0;points=[];autosize=1;fontSize=32;fontColor=#5C5C5C;" vertex="1" parent="1">
          <mxGeometry x="1450" y="980" width="190" height="40" as="geometry" />
        </mxCell>
      </root>
    </mxGraphModel>
  </diagram>
</mxfile>
